<svg width="2519" height="556" viewBox="0 0 2519 556" fill="none" xmlns="http://www.w3.org/2000/svg">
<rect width="2518" height="555" transform="translate(0.169922 0.51123)" fill="white"/>
<circle cx="1431.17" cy="100.511" r="50" fill="#082B25"/>
<path d="M1737.17 54.5112C1769.56 54.5112 1799.39 60.2584 1826.66 71.7526C1854.5 82.6722 1878.36 98.1894 1898.25 118.304C1918.7 137.845 1934.33 161.408 1945.12 188.994C1956.49 216.58 1962.17 246.753 1962.17 279.511C1962.17 312.27 1956.49 342.442 1945.12 370.028C1934.33 397.615 1918.7 421.465 1898.25 441.58C1878.36 461.12 1854.5 476.638 1826.66 488.132C1799.39 499.051 1769.56 504.511 1737.17 504.511C1704.78 504.511 1674.67 499.051 1646.83 488.132C1619.56 476.638 1595.69 461.12 1575.24 441.58C1555.35 421.465 1539.73 397.615 1528.36 370.028C1517.57 342.442 1512.17 312.27 1512.17 279.511C1512.17 246.753 1517.57 216.58 1528.36 188.994C1539.73 161.408 1555.35 137.845 1575.24 118.304C1595.69 98.1894 1619.56 82.6722 1646.83 71.7526C1674.67 60.2584 1704.78 54.5112 1737.17 54.5112ZM1737.17 383.822C1750.24 383.822 1762.45 381.523 1773.82 376.925C1785.75 371.753 1796.26 364.856 1805.35 356.235C1814.44 347.04 1821.54 336.12 1826.66 323.477C1831.77 310.258 1834.33 295.603 1834.33 279.511C1834.33 263.419 1831.77 249.051 1826.66 236.408C1821.54 223.764 1814.44 212.845 1805.35 203.649C1796.26 194.454 1785.75 187.557 1773.82 182.96C1762.45 177.787 1750.24 175.201 1737.17 175.201C1724.1 175.201 1711.6 177.787 1699.67 182.96C1688.31 187.557 1678.08 194.454 1668.99 203.649C1659.9 212.845 1652.79 223.764 1647.68 236.408C1642.57 249.051 1640.01 263.419 1640.01 279.511C1640.01 295.603 1642.57 310.258 1647.68 323.477C1652.79 336.12 1659.9 347.04 1668.99 356.235C1678.08 364.856 1688.31 371.753 1699.67 376.925C1711.6 381.523 1724.1 383.822 1737.17 383.822Z" fill="#082B25"/>
<path d="M1000.17 51.0112C1000.17 50.7351 1000.39 50.5112 1000.67 50.5112H1169.22C1193.43 50.5112 1215.14 54.2654 1234.34 61.7738C1253.54 68.865 1269.61 78.8762 1282.55 91.8073C1295.91 104.738 1305.92 120.172 1312.6 138.109C1319.7 155.629 1323.25 174.817 1323.25 195.673C1323.25 210.273 1320.74 223.83 1315.73 236.344C1311.14 248.858 1304.67 260.537 1296.32 271.383C1288.39 281.811 1279 291.197 1268.15 299.539C1257.38 307.401 1245.8 314.032 1233.39 319.431C1233.2 319.51 1233.09 319.691 1233.09 319.89V325.04C1233.09 325.139 1233.12 325.237 1233.17 325.32L1349.64 497.731C1349.87 498.063 1349.63 498.511 1349.23 498.511H1238.98C1238.82 498.511 1238.67 498.432 1238.57 498.299L1125.54 337.294C1125.45 337.16 1125.3 337.081 1125.13 337.081H1098.34C1098.07 337.081 1097.84 337.305 1097.84 337.581V498.011C1097.84 498.287 1097.62 498.511 1097.34 498.511H1000.67C1000.39 498.511 1000.17 498.287 1000.17 498.011V51.0112ZM1169.22 246.98C1186.75 246.98 1200.53 241.975 1210.55 231.964C1220.56 221.535 1225.57 208.813 1225.57 193.796C1225.57 178.779 1220.77 166.265 1211.17 156.254C1201.99 145.826 1188.01 140.612 1169.22 140.612H1098.34C1098.07 140.612 1097.84 140.836 1097.84 141.112V246.48C1097.84 246.757 1098.07 246.98 1098.34 246.98H1169.22Z" fill="#082B25"/>
<path d="M697.359 50.5112H600.17V498.511H697.359C697.635 498.511 697.859 498.287 697.859 498.011V365.863L740.442 316.433L868.189 498.511H986.218C986.621 498.511 986.858 498.059 986.629 497.727L808.073 238.846L967.597 51.3352C967.873 51.0105 967.642 50.5112 967.216 50.5112H851.908L704.121 223.204H697.859V51.0112C697.859 50.7351 697.635 50.5112 697.359 50.5112Z" fill="#082B25"/>
<path d="M404.314 68.084C363.588 52.9238 319.331 49.9373 276.938 59.4885C234.544 69.0397 195.844 90.716 165.553 121.876C135.263 153.036 114.69 192.334 106.342 234.981C97.9939 277.628 102.231 321.783 118.538 362.064C134.844 402.345 162.515 437.013 198.179 461.843C233.843 486.674 275.959 500.595 319.396 501.909C362.832 503.223 405.713 491.874 442.813 469.245C479.913 446.616 509.629 413.684 528.341 374.463L427.375 326.294C418.008 345.928 403.132 362.414 384.56 373.741C365.989 385.069 344.523 390.751 322.779 390.093C301.035 389.435 279.952 382.466 262.099 370.036C244.246 357.606 230.394 340.252 222.231 320.087C214.068 299.923 211.947 277.819 216.126 256.471C220.305 235.122 230.603 215.45 245.766 199.851C260.93 184.253 280.303 173.402 301.525 168.62C322.747 163.839 344.901 165.334 365.288 172.923L404.314 68.084Z" fill="#167868"/>
<path d="M539.49 209.671C534.333 193.572 527.369 178.108 518.733 163.575L422.565 220.725C426.889 228 430.375 235.742 432.957 243.801L539.49 209.671Z" fill="#9CCC3A"/>
<path d="M550.17 278.011C550.17 261.106 548.256 244.255 544.465 227.78L435.447 252.866C437.345 261.113 438.303 269.549 438.303 278.011H550.17Z" fill="#EF1923"/>
<path d="M538.868 348.264C544.17 332.211 547.638 315.61 549.205 298.778L437.82 288.407C437.035 296.833 435.299 305.143 432.645 313.179L538.868 348.264Z" fill="#FECC00"/>
<path d="M511.21 151.772C501.682 137.807 490.605 124.965 478.188 113.493L402.269 195.654C408.485 201.398 414.03 207.826 418.799 214.817L511.21 151.772Z" fill="#00A3D4"/>
<path d="M465.771 102.833C452.551 92.2972 438.18 83.2919 422.933 75.9891L374.609 176.881C382.241 180.536 389.435 185.044 396.053 190.318L465.771 102.833Z" fill="#F56421"/>
<path d="M2000.17 50.5112H2112.37L2273.18 325.835H2279.41L2273.18 239.874V50.5112H2368.67C2368.95 50.5112 2369.17 50.7351 2369.17 51.0112V496.011C2369.17 496.287 2368.95 496.511 2368.67 496.511H2266.95L2096.16 204.992H2089.93L2096.16 290.953V496.511H2000.17V50.5112Z" fill="#082B25"/>
<path d="M1481.17 498.563V138.511L1479.72 141.27C1458.52 181.712 1400.08 180.076 1381.17 138.511V498.563H1481.17Z" fill="#082B25"/>
</svg>
