<svg width="2519" height="555" viewBox="0 0 2519 555" fill="none" xmlns="http://www.w3.org/2000/svg">
<rect width="2518" height="555" transform="translate(0.169922)" fill="#1D1D1D"/>
<circle cx="1431.17" cy="100" r="50" fill="white"/>
<path d="M1737.17 54C1769.56 54 1799.39 59.7471 1826.66 71.2414C1854.5 82.1609 1878.36 97.6782 1898.25 117.793C1918.7 137.333 1934.33 160.897 1945.12 188.483C1956.49 216.069 1962.17 246.241 1962.17 279C1962.17 311.759 1956.49 341.931 1945.12 369.517C1934.33 397.103 1918.7 420.954 1898.25 441.069C1878.36 460.609 1854.5 476.126 1826.66 487.621C1799.39 498.54 1769.56 504 1737.17 504C1704.78 504 1674.67 498.54 1646.83 487.621C1619.56 476.126 1595.69 460.609 1575.24 441.069C1555.35 420.954 1539.73 397.103 1528.36 369.517C1517.57 341.931 1512.17 311.759 1512.17 279C1512.17 246.241 1517.57 216.069 1528.36 188.483C1539.73 160.897 1555.35 137.333 1575.24 117.793C1595.69 97.6782 1619.56 82.1609 1646.83 71.2414C1674.67 59.7471 1704.78 54 1737.17 54ZM1737.17 383.31C1750.24 383.31 1762.45 381.011 1773.82 376.414C1785.75 371.241 1796.26 364.345 1805.35 355.724C1814.44 346.529 1821.54 335.609 1826.66 322.966C1831.77 309.747 1834.33 295.092 1834.33 279C1834.33 262.908 1831.77 248.54 1826.66 235.897C1821.54 223.253 1814.44 212.333 1805.35 203.138C1796.26 193.943 1785.75 187.046 1773.82 182.448C1762.45 177.276 1750.24 174.69 1737.17 174.69C1724.1 174.69 1711.6 177.276 1699.67 182.448C1688.31 187.046 1678.08 193.943 1668.99 203.138C1659.9 212.333 1652.79 223.253 1647.68 235.897C1642.57 248.54 1640.01 262.908 1640.01 279C1640.01 295.092 1642.57 309.747 1647.68 322.966C1652.79 335.609 1659.9 346.529 1668.99 355.724C1678.08 364.345 1688.31 371.241 1699.67 376.414C1711.6 381.011 1724.1 383.31 1737.17 383.31Z" fill="white"/>
<path d="M1000.17 50.5C1000.17 50.2239 1000.39 50 1000.67 50H1169.22C1193.43 50 1215.14 53.7542 1234.34 61.2626C1253.54 68.3538 1269.61 78.365 1282.55 91.2961C1295.91 104.227 1305.92 119.661 1312.6 137.598C1319.7 155.117 1323.25 174.305 1323.25 195.162C1323.25 209.762 1320.74 223.318 1315.73 235.832C1311.14 248.346 1304.67 260.026 1296.32 270.871C1288.39 281.3 1279 290.685 1268.15 299.028C1257.38 306.89 1245.8 313.52 1233.39 318.919C1233.2 318.999 1233.09 319.179 1233.09 319.379V324.529C1233.09 324.628 1233.12 324.726 1233.17 324.808L1349.64 497.22C1349.87 497.552 1349.63 498 1349.23 498H1238.98C1238.82 498 1238.67 497.921 1238.57 497.787L1125.54 336.783C1125.45 336.649 1125.3 336.57 1125.13 336.57H1098.34C1098.07 336.57 1097.84 336.794 1097.84 337.07V497.5C1097.84 497.776 1097.62 498 1097.34 498H1000.67C1000.39 498 1000.17 497.776 1000.17 497.5V50.5ZM1169.22 246.469C1186.75 246.469 1200.53 241.464 1210.55 231.453C1220.56 221.024 1225.57 208.302 1225.57 193.285C1225.57 178.268 1220.77 165.754 1211.17 155.743C1201.99 145.315 1188.01 140.101 1169.22 140.101H1098.34C1098.07 140.101 1097.84 140.324 1097.84 140.601V245.969C1097.84 246.245 1098.07 246.469 1098.34 246.469H1169.22Z" fill="white"/>
<path d="M697.359 50H600.17V498H697.359C697.635 498 697.859 497.776 697.859 497.5V365.352L740.442 315.922L868.189 498H986.218C986.621 498 986.858 497.548 986.629 497.216L808.073 238.335L967.597 50.824C967.873 50.4993 967.642 50 967.216 50H851.908L704.121 222.693H697.859V50.5C697.859 50.2239 697.635 50 697.359 50Z" fill="white"/>
<path d="M404.314 67.5728C363.588 52.4126 319.331 49.4261 276.938 58.9773C234.544 68.5284 195.844 90.2048 165.553 121.365C135.263 152.525 114.69 191.823 106.342 234.47C97.9939 277.117 102.231 321.271 118.538 361.552C134.844 401.833 162.515 436.502 198.179 461.332C233.843 486.163 275.959 500.083 319.396 501.398C362.832 502.712 405.713 491.363 442.813 468.734C479.913 446.105 509.629 413.173 528.341 373.952L427.375 325.783C418.008 345.417 403.132 361.902 384.56 373.23C365.989 384.558 344.523 390.239 322.779 389.581C301.035 388.923 279.952 381.955 262.099 369.525C244.246 357.095 230.394 339.74 222.231 319.576C214.068 299.412 211.947 277.308 216.126 255.959C220.305 234.611 230.603 214.938 245.766 199.34C260.93 183.741 280.303 172.89 301.525 168.109C322.747 163.328 344.901 164.823 365.288 172.412L404.314 67.5728Z" fill="#167868"/>
<path d="M539.49 209.16C534.333 193.061 527.369 177.597 518.733 163.064L422.565 220.214C426.889 227.489 430.375 235.23 432.957 243.29L539.49 209.16Z" fill="#9CCC3A"/>
<path d="M550.17 277.5C550.17 260.595 548.256 243.744 544.465 227.269L435.447 252.355C437.345 260.602 438.303 269.037 438.303 277.5H550.17Z" fill="#EF1923"/>
<path d="M538.868 347.752C544.17 331.7 547.638 315.099 549.205 298.266L437.82 287.895C437.035 296.322 435.299 304.632 432.645 312.668L538.868 347.752Z" fill="#FECC00"/>
<path d="M511.21 151.261C501.682 137.296 490.605 124.454 478.188 112.981L402.269 195.143C408.485 200.886 414.03 207.315 418.799 214.306L511.21 151.261Z" fill="#00A3D4"/>
<path d="M465.771 102.322C452.551 91.7859 438.18 82.7807 422.933 75.4779L374.609 176.369C382.241 180.025 389.435 184.533 396.053 189.807L465.771 102.322Z" fill="#F56421"/>
<path d="M2000.17 50H2112.37L2273.18 325.324H2279.41L2273.18 239.363V50H2368.67C2368.95 50 2369.17 50.2239 2369.17 50.5V495.5C2369.17 495.776 2368.95 496 2368.67 496H2266.95L2096.16 204.48H2089.93L2096.16 290.441V496H2000.17V50Z" fill="white"/>
<path d="M1481.17 498.052V138L1479.72 140.759C1458.52 181.201 1400.08 179.565 1381.17 138V138V498.052H1481.17Z" fill="white"/>
</svg>
